<svg xmlns="http://www.w3.org/2000/svg" width="33" height="54" viewBox="0 0 33 54"><path d="M29 27H4c-2.2 0-4 1.8-4 4v16c0 2.2 1.8 4 4 4h25c2.2 0 4-1.8 4-4V31c0-2.2-1.8-4-4-4zm-12.55 7.14c.15-.33.35-.63.59-.9.25-.27.53-.49.86-.66.33-.17.67-.26 1.03-.28.01.04.01.09.01.13v.13c0 .35-.07.7-.22 1.04-.14.34-.33.65-.57.92-.24.27-.51.49-.81.65-.3.16-.61.24-.92.24-.13 0-.19-.02-.2-.07 0-.04-.01-.11-.01-.2.01-.34.09-.67.24-1zm4.88 9.02c-.16.32-.33.61-.51.88s-.35.51-.51.71c-.17.2-.3.35-.41.45-.18.16-.37.29-.56.38-.19.09-.39.14-.6.14-.13 0-.3-.03-.49-.08s-.38-.11-.59-.18c-.2-.07-.4-.13-.61-.18s-.38-.08-.55-.08c-.18 0-.38.03-.59.09-.21.06-.42.12-.63.19-.21.07-.41.13-.59.18-.18.05-.33.08-.44.08-.16 0-.32-.03-.47-.08-.15-.05-.31-.15-.48-.28a3.77 3.77 0 0 1-.53-.53c-.18-.22-.39-.49-.61-.82-.21-.31-.4-.64-.57-1a7.39 7.39 0 0 1-.45-1.13c-.13-.39-.22-.78-.29-1.18-.07-.4-.1-.78-.1-1.15 0-.58.09-1.12.26-1.61s.41-.91.71-1.27c.31-.36.66-.64 1.07-.84.4-.2.84-.3 1.32-.3.35 0 .76.1 1.24.3.48.2.8.3.98.3.06 0 .18-.03.35-.09.17-.06.42-.15.74-.26.31-.11.55-.18.74-.22s.38-.06.58-.06c.52 0 1.02.12 1.5.37s.85.57 1.13.98c-.51.31-.88.67-1.11 1.09-.23.42-.34.91-.34 1.48 0 .59.16 1.13.48 1.62.32.49.76.86 1.33 1.11-.1.35-.24.68-.4.99z" fill="#efefef"/></svg>