<svg xmlns="http://www.w3.org/2000/svg" width="570" height="760"><path fill-rule="evenodd" d="M444.624 71.08l1.386.57c.752 1.012.242 1.744.76 2.748.384.16.77.318 1.154.477.177.827.408.956.256 2l-.382.923c1.608.763 1.302 1.19 1.738 2.34-.61.807-.436.41-.804 1.29l1.06.708.256 2-.843.732c9.71 11.4 19.425 22.806 29.137 34.206l18.56 21.186c11.56 13.695 23.12 27.395 34.677 41.09 11.39 13.874 24.26 26.08 27.224 43.42 1.128 6.595-.262 12.94-1.857 20.866-1.07 5.31-5.788 8.236-6.593 12.69-1.337 7.403.304 14.44-.47 21.438 3.873 2.174 8.946 5.487 9.968 9.254l.537 5.9c1.85 4.633 5.183 6.58 2.31 13.393 2.927 4.16 3.064 7.596.965 13.38 2.637 3.522 2.624 7.632-.19 12.9 1.62 2.448 2.395 5.893.914 9.57l-1.8 3.044c-.213 1.47 1.427 4.65 1.08 7.206-.32 2.368-2.606 3.618-2.846 5.584-.194 1.59 1.034 4.457.618 7.015-.422 2.595-2.78 3.85-2.982 5.257-.05 2.016.563 3.948.115 6.267-.573 2.977-3.262 3.92-3.595 6.087-.195 1.275.417 3.317.13 4.922-.613 3.438-3.6 4.514-4.112 6.684-.46 1.948.496 4.817-1.15 7.367-1.142 1.24-2.285 2.48-3.43 3.72-.768 2.04.093 5.16-1.897 7.87-.7.954-2.247 1.64-2.856 2.335-1.666 1.9-.682 5.332-2.455 7.91-.914 1.326-2.466 1.824-3.28 2.7l-2.21 6.66c-1.227 1.854-3.132 2.468-4.217 3.666l-2.958 7.16c-1.004 1.246-3.043 1.734-3.836 2.743-1.258 1.598-1.405 4.202-2.808 6.142-1.165 1.61-3.083 1.83-4.163 2.876-1.327 1.286-2.12 4.488-3.27 5.95-1.282 1.633-3.33 1.9-4.49 3.014-1.768 1.7-2.496 4.473-4.15 6.127-1.147 1.145-3.18 1.357-4.204 2.32l-2.41 3.872c-1.81 1.764-4.44 2.672-6.312 4.152l-3.62 4.183c-10.19 7.08-20.51 14.523-30.732 21.38-14.41 9.663-27.702 20.403-41.97 30.256-8.466 5.848-17.54 10.67-26.172 16.233-2.405 1.55-6.227 1.385-8.527 2.968-1.776 1.224-2.788 2.643-4.815 3.15l-5.765.864c-1.605.537-2.7 2.36-4.394 2.782-2.416.174-4.832.35-7.247.523-1.54.512-2.64 2.196-4.298 2.55-2.153.46-4.494-.503-6.73-.075l-4.53 2.455c-2.187.517-4.653-.653-6.96-.17-.22.046-4.923 2.532-5.18 2.727l-2.547 3.546c1.783 2.942.906 6.755-.908 10.71 3.36 2.568 1.317 6.657 1.552 10.647 3.356 4.398 2.73 5.03 3.224 10.525 1.403 1.63 2.873 2.12 3.857 3.756 1.603 2.664-.182 6.112 3.812 7.794l2.837 3.606c.907 1.546.373 4.36 1.748 5.59 4.565-.41 6.72 6.533 6.815 9.032 6.99-.29 6.095 6.36 9.14 8.642 4.768-1.967 7.38 6.766 8.447 8.356 1.78-1.02 4.296.815 5.965 1.923.737-.61.753-.743 1.863-.583 4.72 2.76 9.44 5.52 14.157 8.28 12.786 8.766 30.99 15.617 37.804 26.97 3.14 5.228.065 16.598-5.406 22.914-2.552 2.946-6.207 5.258-9.09 7.603-8.156 6.637-16.023 13.547-23.986 20.108-4.643 3.825-9 8.984-14.598 10.466-16.746 4.432-42.107-11.2-57.263-21.755-2.89-2.012-15.503-7.87-15.854-10.063l.246-1.25-4.415-3.716c-.733-1.077-.327-2.432-1.26-3.495-5.59 1.406-8.304-7.45-9.602-8.832-3.573.843-8.232-5.1-8.693-7.105.07-.603.137-1.205.206-1.808l-4.158-1.717c-2.19-3.565-4.558-4.223-4.45-8.868-4.43-1.69-7.623-5.07-7.89-8.396l.493-2.5c-.814-.428-1.63-.854-2.445-1.28-1.954-1.53-3.784-4.457-4.29-6.64-.25-1.084.84-3.147.373-4.173-3.507-3.967-7.103-6.396-4.038-12.482-2.672-2.692-4.662-5.63-4.164-9.56.224-1.77 1.71-2.468 1.893-3.276-.1-1.232-.68-1.167-1.276-2.15-2.333-3.844-.954-7.23 1.927-10.56-1.08-2.143-2.757-6.842.257-10.44.666-.794 1.572-.762 2.34-1.737-.747-2.398-.773-6.612 1.586-9.08.92-.962 2.055-.833 2.993-2.008-.704-2.703 1.472-7.408 3.625-8.778 1.087-.692 1.714.01 2.708-1.317-1.16-4.61 4.942-6.59 6.493-7.864l3.676-4.973c3.906-2.913 8.762-5.228 12.76-7.98 5.846-4.024 11.172-8.3 17.168-12.108 3.813-2.423 8.23-4.654 11.78-7.574l-.692-.286-3.982-.834c-2.075.434-3.603 2.005-6.147 1.788-1.822-.155-3.68-1.86-5.735-1.827l-2.38 1.18c-2.82.693-6.313-.22-9.677-2.104-3.29 2.105-8.08.812-12.23-1.807-3.53 2.23-8.272-.238-12.18-2.595-2.244 1.34-7.228.578-10.33-1.832l-1.56-1.456-2.652.527c-3.788-.185-6.853-2.88-8.858-4.74-4.004 2.28-8.89-2.393-11.646-4.54-4.44 1.637-8.685-3.142-11.36-5.232-4.665 1.48-8.134-3.076-10.243-5.312-1.12-1.19-4.676-.29-6.85-1.747-2.13-1.432-3.17-3.13-4.59-4.6-1.01-.402-3.944-.203-6.06-1.693-2.202-1.55-3.276-4.095-5.093-5.348-4.85 1.814-8.516-5.674-10.596-7.08-5.344 1.33-8-6.108-10.404-7.543-5.095 1.28-7.61-6.326-9.752-7.813-5.07.972-7.57-6.598-9.33-8.18-5.23 1.014-7.708-6.608-9.236-8.41-5.954.473-7.634-7.437-9.276-8.97-5.422.974-7.207-7.76-9.18-9.198-4.37.39-7.695-6.754-7.834-9.184-5.18-.39-8.16-6.032-8.296-9.375-4.286-1.712-7.39-4.75-8.08-7.934-.273-1.262.466-1.415-.623-2.42-5.322.105-6.32-9.09-7.916-10.3-3.36-.04-7.344-7.06-6.433-9.957-4.147-1.725-5.902-4.424-7.25-7.32-.965-2.074 1.133-2.894-1.994-4.34-2.89-3.554-5.217-5.077-4.76-10.078-3.778-1.665-6.777-5.665-6.91-8.803-.05-1.118.603-1.472.164-2.365a3093.3 3093.3 0 0 0-2.35-1.51c-2.154-2.13-2.865-4.963-3.907-7.564.24-.802.482-1.604.723-2.405-5.707-2.285-5.92-7.185-5.86-11.343-2.698-3.148-5.307-4.734-5.892-8.652l.547-3.29c-2.64-2.958-5.332-4.948-5.563-8.787.304-.956.61-1.91.914-2.867-3.06-3.708-6.96-6.33-4.364-12.347-3.38-1.676-5.348-6.41-5.278-9.48l1.145-2.773-2.893-2.817c-.93-1.526-2.007-4.81-1.828-6.704l1.145-2.773c-2.894-3.795-5.946-6.904-2.923-12.564-3.07-2.723-5.28-6.907-3.305-11.64.484-.278.512-.326.938-.964-3.968-2.42-5.143-8.876-1.81-12.645-4.376-2.724-4.317-8.648-1.48-12.78-3.79-3.632-3.647-8.077-.6-12.956-2.466-1.58-4.456-7.673-1.59-11.205.467-.576 1.115-.82 1.36-1.33-2.55-4.864-3.494-7.992 1.114-12.52-4.03-3.587-2.293-8.928 1.345-12.423-1.474-1.984-3.412-7.2-.437-10.726.706-.838 1.77-.77 2.57-1.642-1.492-2.284-2.707-7.28.352-10.67.682-.758 2.204-.472 2.244-1.508-.45-3.538-1.228-4.99.95-10.154 1.012-.29 2.193-.72 2.896-1.778-1.436-2.24-1.528-6.967 1.315-9.732 1.075-1.045 1.956-.304 2.993-2.01-1.427-2.345-.667-7.385 2.24-9.35 1.206-.814 1.855-.07 2.897-1.777-2.253-4.234 1.975-8.985 5.584-9.59-.086-2.618-.095-6.477 2.51-8.7 1.586-1.35 3.14-.238 4.395-2.78-1.782-6.267 5.752-6.34 7.637-10.637-.795-4.027 4.752-5.78 7.075-6.002 1.172-5.102 4.005-7.787 8.396-7.89 1.513-3.594 3.74-6.712 6.533-7.306 1.202-.256 1.673.385 2.65-.527l3.582-4.74c1.663-1.387 4.145-.6 5.82-1.653l4.368-4.686c1.47-.92 3.637-.337 5.072-1.15 1.796-1.51 3.593-3.023 5.388-4.535 1.278-.76 2.942-.14 4.324-.65l6.312-4.152c1.117-.61 2.395-.077 3.67-.377 3-.705 5.667-3.667 8.773-4.217 5-.887 9.443-3.166 14.25-4.39 9.67-2.46 19.003-5.435 28.68-7.895 14.122-3.59 27.936-9.452 42.1-12.898l4.038.045c.934-.515 1.868-1.03 2.802-1.547 1.51-.383 3.345-.796 4.745-1.014 1.283.168 2.565.338 3.847.507l2.245-1.506 5.67-.633 3.52.644c1.118-.244 2.108-1.48 3.36-1.587 2.445-.21 5.658 1.066 8.018.878 1.17-.094 2.38-1.395 3.822-1.396 2.12-.003 5.946 1.523 7.83 1.34 1.344-.132 2.532-1.382 4.282-1.206 2.512.253 3.807 1.64 6.85 1.747 1.382.05 2.818-1.245 4.514-1.11l7.216 2.17c1.14-.027 2.597-1.124 3.957-1.07l7.91 2.455c.982-.026 2.207-1.044 3.4-1.03l8.14 2.55c1.922-.048 5.006-1.255 7.07-1.405l6.906.96c3.322-1.063 6.645-2.124 9.967-3.185 9.53-2.507 19.065-6.32 29.452-6.495 34.537-.58 48.91 32.746 66.288 49.008 1.576 1.475 5.446 1.28 8.276 2.877 3.195 1.805 9.982 6.246 10.525 9.215l-.15 1.02zm-412.66 62.93l.46.19.654-.27.095-.23c-.276-.206-.552-.41-.828-.614l-.382.924zm-4.35 11.183c.232.096.463.19.694.287.172-.2.344-.4.517-.598l-.83-.613-.38.923zm9.486-22.31c.848.048.263.187.883-.177l-.693-.286-.19.462zm-13.14 33.78l.828.613.613-.83c-.12-.14-.244-.28-.366-.42-.154-.064-.308-.128-.462-.19-.11.044-.217.09-.326.134-.096.23-.19.462-.287.693zM20.9 168.65l1.06.708.326-.136.19-.462-.637-1.074c-.153-.064-.307-.128-.46-.19l-.478 1.154zm-2.08 11.58c.37.724.128.668 1.1 1.265l.328-.135.19-.462-1.1-1.266c-.03.078-.063.154-.095.23-.14.123-.28.246-.422.368zm-1.535 12.886c.462.19.924.38 1.386.572.064-.154.128-.308.19-.462-.397-.345-.795-.69-1.194-1.034l-.383.924zm14.426-28.383l.462.19c.064-.154.128-.308.19-.462-.153-.062-.307-.126-.46-.19l-.192.463zM16.5 205.5l1.29.802c.064-.153.128-.308.19-.462l-1.194-1.034-.286.693zm20.34-42.706c.69.055.193.266.653-.27-.154-.065-.308-.13-.462-.192-.062.154-.126.308-.19.462zM16.5 217.938l1.06.708.19-.462c-.66-.448-.585-.483-.964-.94l-.286.694zm.558 12.398c.32.48.124.356.733.844.065-.154.13-.308.192-.462l-.366-.422-.558.04zm1.156 12.916l.788.055-.23-.095-.367-.422c-.064.154-.128.308-.19.462zm35.524-80.78l.462.19.19-.46-.23-.097c-.14.122-.28.245-.422.367zM59 160.86l.423-.367-.422.367zm-38.978 95.036l.924.382.096-.23-.23-.097c-.2-.17-.4-.343-.6-.516-.062.154-.126.308-.19.462zM66.9 147.626c.367-.337.53-.096.19-.46l-.19.46zm-3.003 11.2c.688.054.193.265.653-.272l-.23-.095c-.142.12-.283.244-.423.366zm8.034-12.907l.463.19.19-.462a63.78 63.78 0 0 1-.46-.19c-.065.153-.13.308-.192.46zM22.484 268.27l.462.19c.064-.154.128-.308.19-.462l-.23-.095-.422.366zm46.445-111.152l.598.517.286-.693-.135-.326-.75.502zm8.034-12.906l.462.19.287-.692-.46-.19c-.097.23-.192.46-.288.692zM73.96 155.41c.71.22.323.426.98-.406l-.463-.19-.095.23-.422.366zm7.898-13.232l.598.517.286-.693-.462-.19c-.14.12-.28.244-.422.366zm-9.61 25.234l.286-.693-.286.692zM25.638 280.93l.42-.368-.42.367zm53.354-127.227c.983.017.293.286.98-.407l-.694-.286-.286.693zm7.803-13.002c.983.02.293.287.98-.406l-.463-.19-.096.23-.42.367zm-2.772 11.295c.984.017.293.286.98-.407l-.136-.326-.462-.19-.382.923zm7.803-13c.69.054.193.264.653-.273l-.463-.19-.19.462zM82.27 163.44l.423-.367c-.14.122-.28.245-.422.367zm6.785-13.153c.154.064.308.128.462.19l.286-.692-.462-.19-.285.692zm11.036-24.104c.985.017.294.286.98-.407a89.843 89.843 0 0 1-.46-.19l-.097.23c-.14.122-.28.245-.422.367zm-3.463 11.008l.598.518.286-.693c-.12-.14-.244-.28-.366-.422l-.095.23-.423.368zm-9.65 24.678l.46.19c.193-.92.277-.48-.08-1.114l-.38.924zm6.974-13.615c.242.394.135.333.503.75l.286-.694c-.2-.174-.4-.346-.598-.52l-.19.463zm15.235-34.268c.984.017.293.286.98-.407l-.463-.19-.517.597zm-4.253 10.952c.907-.086.6.077 1.17-.868-.23-.097-.462-.192-.693-.288-.16.385-.32.77-.478 1.155zm-3.504 10.45c.757.55.56.758 1.21-.31l-.04-.558-.232-.097-.938.965zm-15.51 38.21c.14-.12.28-.243.42-.365l-.42.366zm6.05-13.994c.24.393.134.332.502.748l.19-.46-.23-.097-.462-.19zm6.688-12.92c.758.547.562.756 1.21-.313l-.597-.517-.328.135-.286.694zm8.743 102.575c5.08 2.464 3.17 6.824 3.4 11.41 2.262 2.628 3.983 4.056 4.233 7.426-.17 1.283-.34 2.565-.507 3.847 3.056 3.547 5.63 6.132 3.862 11.6.77.32 1.54.637 2.31.955l2.496 5.087-.1 4.825c4.42 4.89 5.176 4.337 4.746 11.424 5.154.492 5.39 7.25 5.263 10.828 6.783.75 3.836 9.035 6.61 10.84 4.87.074 3.83 8.58 5.453 10.366 5.53-.345 4.674 8.474 6.338 10.188 5.213-.657 5.026 7.816 6.433 9.958 5.698-1 5.43 8.237 7.317 9.782 5.197-.908 5.394 7.843 7.18 9.455 5.494-.988 5.726 7.7 7.51 9.32 4.453-1.26 7.042 6.103 7.14 8.898 5.536.263 7.56 4.8 8.256 8.818 7.306-.454 6.02 6.126 8.91 8.546 4.64-1.508 7.55 5.71 7.984 8.164 7.237-.714 6.34 5.412 9.426 7.95 5.418-1.97 6.808 5.936 9.29 7.62 4.875-2.327 7.193 5.805 9.155 7.297 4.753-2.672 7.433 5.267 9.346 6.835 5.345-2.168 7.406 4.812 10 6.563 1.548-.908 3.414-.048 5.79 1.04 1.054 1.608 2.537 4.084 4.398 5.06 4.27-2.626 7.723 3.912 9.823 5.68 4.57-2.797 7.678 3.544 10.572 5.177.97-.625 1.633-.836 3.113-.337 3.84-.31 5.11 3.778 7.65 5.05 3.845-2.93 7.51 2.604 10.72 4.16 3.75-2.903 7.296 1.927 10.68 3.6 3.82-2.546 6.93 1.024 10.97 2.906 3.352-2.43 6.693.16 11.02 2.118 3.32-2.13 6.772-.36 11.31 1.426 4.956-3.44 6.052 1.015 11.133.542 1.357-.126 2.65-1.733 4.243-1.763 2.36-.043 4.896 1.54 7.042 1.285 1.268-.61 2.568-1.742 4.012-1.858l6.674.864c1.292-.73 2.584-1.457 3.876-2.185 2.326-.465 4.66.59 6.96.17 1.14-.79 2.277-1.583 3.415-2.375 2.354-.656 4.847.083 7.245-.523 2.38-.6 3.432-4.165 5.268-6.207 1.056-1.175 3.18-1.4 4.203-2.32 1.846-1.66 1.77-5.506 3.61-7.432 1.272-1.33 3.04-1.118 4.163-2.878-.458-6.108 4.8-7.075 6.562-9.998-1.306-5.072 3.677-7.94 5.68-9.823-.3-.824.208-1.566.26-2.596.284-5.64 1.818-5 4.644-8.626-.453-2.06-.932-6.292 1.356-9.175.854-1.078 1.862-1.143 2.72-2.663-1.873-4.075.015-8.205 3.1-11.43-2.31-4.613-1.317-7.726 1.902-12.463-1.257-2.944-2.594-5.783-.724-10.033.747-1.696 1.388-1.63 1.798-3.042-2.15-2.62-2.703-5.903-1.608-9.858l1.743-2.255c.138-1.21-2.448-3.784-2.727-5.182l.1-4.826 1.566-3.138c-.687-.736-1.376-1.47-2.064-2.206-1.872-2.892-1.576-6.683.35-10.67-2.05-2.503-3.848-5.044-3.524-8.487l2.194-5.313c.013-1.836-1.153-2.592-1.532-4.148-.88-3.61 1.5-6.667 3.585-9.335-2.524-3.81-4.64-9.476-8.632-12.488l-3.52-.642c-3.42-.557-8.623-1.943-12.067-4.173-9.28-6.008-16.078-11.087-22.26-18.117-15.848-18.8-31.7-37.61-47.55-56.41l-8.365-7.242c-7.24-7.06-14.416-14.383-20.64-22.044-5.26-6.474-10.31-13.367-14.905-20.216l-4.6-7.85c-6.79-8.573-14.234-16.606-21.073-24.925-16.857-20.507-45.51-45.613-45.886-72.22-.05-3.62 1.53-8.107 2.27-12.042a32.783 32.783 0 0 0-5.46-5.768l-3.64-2.315c-1.576-1.714.43-1.932-3.394-3.565-3.188.158-5.842.357-9.094-.24-1.617-.67-3.234-1.336-4.85-2.004-1.83-.09-3.86 1.03-6.228.673l-5.64-2.058c-1.432.055-3.09 1.12-4.745 1.015-2.36-.614-4.722-1.23-7.082-1.843-1.537.052-2.97 1.104-4.745 1.015l-6.945-1.517-2.38 1.18c-2.68.56-6.234-.592-9.135-.798l-5.06 4.4-4.19.974c-1.894 1.243-2.8 3.904-4.56 5.146-1.192.842-3.355.584-4.378 1.436a20259.49 20259.49 0 0 1-3.35 4.836c-2.35 2.187-4.306.738-6.135 5.038l-2.68 3.218c-1.46 1.074-2.95.554-4.07 2.647.335 4.555-5.343 5.82-6.818 8 1.107 4.352-4.758 6.88-6.086 8.844.817 3.484-3.21 8.205-5.528 8.804.8 5.038-2.522 7.34-4.85 10.435 1.44 3.73-2.23 7.998-4.293 10.395 2.125 3.475-1.38 7.85-3.37 10.776 2.078 3.373-.77 7.815-2.906 10.968 1.225 1.95 1.565 6.454-.76 9.692-.45.626-1.12.978-1.224 1.657 1.64 3.79.848 7.317-1.752 11.445 2.793 2.548 1.488 7.5-.733 11.595 2.472 2.76 2.325 7.332-.174 11.555 3.163 3.51 1.737 7 .517 11.84 3.244 3.443 2.285 7.01 1.076 11.802 2.942 2.8 3.73 6.884 1.63 11.76 3.393 2.344 4.144 7.156 2.19 11.72 3.68 2.11 4.55 7.306 2.75 11.68zm-10.863-91.554l.87 1.17.286-.693-.04-.556-.694-.286-.423.366zm-.27 11.786l-.924-.382-.19.462.732.844.382-.924zm-1.576 12.328l.79.055c-.242-.393-.135-.332-.503-.748l-.286.693zm.056 11.65l.367.422.19-.462-.557.04zm55.478 286.01c.14-.12.28-.244.422-.366-.14.122-.28.245-.422.367zm9.522 7.72c.154.062.308.126.462.19l.19-.462-.46-.19c-.065.153-.13.307-.192.46zm20.348 14.892l.462.19c.064-.153.128-.307.19-.46-.153-.065-.307-.128-.46-.192l-.192.462zm34.827-76.47l.423-.368-.422.367zm-24.27 82.993c.122.14.245.28.367.422a4.425 4.425 0 0 0-.367-.422zm33.1-75.563c.518.207.1.28.557-.04l-.558.04zm1.707 5.032c.848.05.263.188.884-.176l-.692-.286c-.064.154-.128.308-.19.462zm-24.25 77.053c.153.064.307.128.46.19l.192-.46-.463-.192-.19.462zm31.737-74.23c.154.062.308.126.462.19l.19-.462c-.044-.11-.09-.218-.135-.327l-.23-.095-.286.694zm1.708 5.03c1.014.01.443.266 1.074-.637a63.78 63.78 0 0 0-.462-.19c-.11.044-.217.09-.326.134l-.286.693zm7.773 2.13c.69.054.193.265.653-.272l-.135-.326-.23-.096-.288.694zm2.13 4.664c.477-.087.474-.05.19-.463l-.19.462zm7.447 2.264l.462.19.286-.693c-.154-.062-.308-.126-.462-.19l-.286.694zm-28.46 71.53c.14-.123.282-.245.423-.367l-.422.366zm38.323-65.294l.597.517c.096-.23.19-.462.287-.693-.123-.14-.246-.28-.368-.422l-.095.23c-.14.123-.28.246-.422.368zm10.054 5.774c.243.282.487.563.732.844l.286-.693-.83-.613c-.062.154-.126.31-.19.462zm10.38 5.64c.24.392.132.33.5.747l.382-.923-.693-.286-.19.463zm10.338 5.08l.734.844.38-.924-.596-.517-.518.598zm10.626 4.39c.38.452.315.482.965.938l.285-.693-.83-.614-.42.367zM253.366 619.96l.924.38.19-.46-.23-.096-.598-.517-.286.693zm-.828 11.826c.38.453.315.483.964.94.186-.015.372-.028.557-.04l.19-.463c-.448-.53-.495-.657-1.426-1.13l-.286.693zm61.68-145.42l.827.612c.096-.23.19-.462.287-.693l-.83-.612-.285.693zm-56.824 142.828c.262.02.525.037.788.056a45.28 45.28 0 0 0-.136-.327l-.135-.326c-.03.077-.063.154-.095.23l-.42.367zm-3.183 14.91c.332.653.11.582.87 1.17.294-.06.59-.117.883-.176l-.366-.422c-.312-.54-.408-.598-1.196-1.034-.062.154-.126.308-.19.462zm70.88-154.6c.453.406.41.66.827.612l.518-.597-.924-.383-.42.367zm-66.8 167.64l.923.383.19-.462-.23-.096-.598-.518-.286.693zm77.997-164.638c.984.018.293.286.98-.407-.23-.096-.463-.19-.694-.287l-.286.693zm-72.002 176.31l.462.19c.064-.154.128-.308.19-.462-.153-.064-.307-.128-.46-.19l-.192.46zm83.12-174.422c.984.017.293.286.98-.407a63.78 63.78 0 0 1-.462-.19l-.096.23c-.14.122-.28.245-.422.367zm-25.616 95.418l.46.19.097-.23c-.154-.064-.308-.128-.462-.19l-.096.23zm136.357-216.25c.154.064.308.128.462.19l.19-.46-.136-.327-.23-.095-.287.693zm.136 12.766c.14-.122.28-.245.422-.367-.14.123-.28.246-.422.368zm-50.497 124.89c1.052.074 2.103.148 3.154.22 2.887-3.507 6.688-1.65 10.566-2.666 1.33-.35 2.3-2.19 3.74-2.51 1.626-.363 5.602-.28 6.88-.945l2.3-2.295 1.768-.352 2.41-3.87c1.468-1.39 3.608-1.6 4.91-3.38.67-1.618 1.336-3.235 2.004-4.852 1.33-1.687 3.79-1.913 4.91-3.38 1.564-2.046 1.225-4.97 3.094-6.835l-.462-.19-45.274 31.056zm48.593-33.2l.788.055.19-.462a63.78 63.78 0 0 1-.46-.19c-.174.2-.346.4-.52.598zm101.082-178.63l.462.19a45.28 45.28 0 0 1-.136-.326l.096-.23c-.14.12-.282.244-.422.366zm1.808 12.644c.52.207.1.28.558-.04l-.558.04zm.694 12.725c.52.207.1.28.557-.04l-.556.04z"/></svg>