<svg xmlns="http://www.w3.org/2000/svg" width="560" height="585"><path fill-rule="evenodd" d="M353.12 11.95c81.564 17.107 152.95 71.47 180.54 127.297 10.744 21.738 22.723 40.718 22.194 70.107-.007.37.018.746-.038 1.11-3.684 23.756-24.89 43.6-31.667 55.38-2.38 11.252-4.717 21.267-7.096 32.52-6.224 18.957-12.455 40.527-19.383 57.953-9.84 20.75-18.935 42.288-29.354 62.253-29.848 52.906-82.168 106.65-126.138 132.406-26.682 15.628-52.136 26.038-91.304 25.84-7.1-.035-18.134-1.72-26.45-4.036-11.078-3.085-26.582-7.502-37.797-14.138-43.806-25.92-79.11-59.17-108.64-95.074-4.678-5.69-7.805-12.338-11.568-19.19-7.608-13.847-14.958-29.19-23.01-43.833-2.735-4.974-8.57-8.15-12.92-12.09-13.313-12.056-23.432-23.61-25.334-43-1.702-17.358 7.446-38.855 13.547-52.878C32.76 260.265 41.323 226.7 54.59 195.38c12.985-30.652 25.51-76.715 40.33-102.496 1.987-3.46 4.613-6.28 7.136-8.86 6.523-6.68 14.79-11.107 24.142-12.844 5.312-.986 10.228-.067 15.74-.787 8.17-1.068 16.944-2.704 24.142-5.81 39.867-17.198 72.632-40.825 116.49-50.006 15.907-3.33 33.88-4.063 51.542-4.602l19.007 1.975zm48.622 91.223c-9.047-.72-18.097-2.11-27.145-2.83-4.24-.896-8.48-1.126-12.72-2.023-15.28 2.684-46.728 26.064-56.933 38.59-3.757 4.61-10.127 12.18-10.424 21.285-.504 15.5 6.192 23.47 6.058 39.85-.165 20.013-11.94 40.084-16.833 57.037 9.15 10.3-2.678 35.146-9.658 41.797-3.126 1.893-6.587 4.455-9.713 6.35-5.62 14.485-11.24 28.975-16.858 43.46-7.46 18.357-14.42 36.718-21.88 55.074-9.784 23.055-15.102 47.26-30.51 61.15-7.032 6.336-16.266 9.873-25.38 13.082-3.16 5.523-4.198 11.83-2.05 16.946l.49.104c32.17 3.847 74.39-16.86 94.77-32.796 25.854-20.22 52.87-42.893 73.96-72.27l14.724-18.865c3.81-7.625 2.093-24.127 6.16-33.968 13.243-32.043 34.05-66.81 34.147-108.3.044-18.47-3.84-32.33-5.11-48.867-1.844-24.08 22.006-46.22 24.255-57.295.957-4.712-3.247-11.733-5.925-16.788l-3.425-.724zm16.48 62.268c-4.51 4.372-2.374 12.455.04 14.32l-.04-14.32zm107.754 29.537c.782 9.195 1.397 18.393 2.178 27.588.163.034.326.07.49.103l.592-.386c5.047-10.105 5.293-21.61-3.26-27.305zm-51.532 20.64c-.01.85-.02 1.7-.028 2.55.52 2.428-.51 2.81 4.18 5.022l.103-.49c-.84-2.486-2.067-5.42-4.256-7.083zM383.052 438.12c-6.695 2.71-12.158 4.553-13.586 13.483l1.958.414c7.53-1.012 11.834-3.48 13.585-13.484l-1.958-.414z"/></svg>